<svg xmlns="http://www.w3.org/2000/svg" width="102" height="30"><path data-name="패스 46009" d="M17.8 7.079 12.031 23.34H7.074L1.306 7.079h4.216l4.03 12.276 4.054-12.277zm9.334 16.423a8.487 8.487 0 0 1-4.2-1.066 7.965 7.965 0 0 1-3.034-2.981 8.319 8.319 0 0 1-1.123-4.3 8.257 8.257 0 0 1 1.123-4.277 7.991 7.991 0 0 1 3.035-2.965 8.487 8.487 0 0 1 4.2-1.066 8.487 8.487 0 0 1 4.2 1.066 7.823 7.823 0 0 1 3.011 2.965 8.392 8.392 0 0 1 1.1 4.285 8.386 8.386 0 0 1-1.112 4.3 7.906 7.906 0 0 1-3.011 2.977 8.422 8.422 0 0 1-4.189 1.062zm0-3.614a3.991 3.991 0 0 0 3.116-1.3 4.924 4.924 0 0 0 1.17-3.428 4.915 4.915 0 0 0-1.17-3.44 4.008 4.008 0 0 0-3.116-1.286A4.054 4.054 0 0 0 24 11.711a4.906 4.906 0 0 0-1.17 3.451A4.915 4.915 0 0 0 24 18.603a4.036 4.036 0 0 0 3.134 1.285zm9.845-4.7a8.741 8.741 0 0 1 1.042-4.3 7.45 7.45 0 0 1 2.907-2.942 8.44 8.44 0 0 1 4.227-1.054 8.089 8.089 0 0 1 4.957 1.529 7.342 7.342 0 0 1 2.757 4.17h-4.354a3.517 3.517 0 0 0-1.378-1.552 3.875 3.875 0 0 0-2.027-.533 3.783 3.783 0 0 0-2.965 1.274 4.93 4.93 0 0 0-1.135 3.405 4.93 4.93 0 0 0 1.135 3.405 3.783 3.783 0 0 0 2.965 1.275 3.875 3.875 0 0 0 2.027-.533 3.517 3.517 0 0 0 1.378-1.552h4.355a7.289 7.289 0 0 1-2.757 4.158 8.132 8.132 0 0 1-4.957 1.517 8.44 8.44 0 0 1-4.227-1.054 7.471 7.471 0 0 1-2.907-2.93 8.675 8.675 0 0 1-1.043-4.285zm27.195 5.1h5.189v3.058h-9.15V7.079h3.961zm17.211.185h-6.069l-.973 2.872H70.2l5.88-16.266h4.587L86.55 23.34h-4.192zm-1.019-3.058-2.016-5.96-1.992 5.953zm17.813-2.409a3.782 3.782 0 0 1 2.27 1.4 3.979 3.979 0 0 1 .857 2.513 3.994 3.994 0 0 1-1.425 3.231 6.01 6.01 0 0 1-3.973 1.193h-7.574V7.079h7.32a6 6 0 0 1 3.88 1.135 3.754 3.754 0 0 1 1.4 3.081 3.721 3.721 0 0 1-.753 2.386 3.894 3.894 0 0 1-2.002 1.32zM92.3 13.655h2.59a2.3 2.3 0 0 0 1.494-.429 1.54 1.54 0 0 0 .521-1.262 1.574 1.574 0 0 0-.521-1.274 2.255 2.255 0 0 0-1.494-.44H92.3zm2.919 6.486a2.349 2.349 0 0 0 1.54-.452 1.6 1.6 0 0 0 .544-1.309 1.675 1.675 0 0 0-.568-1.344 2.326 2.326 0 0 0-1.564-.486H92.3v3.59z"/></svg>