<svg xmlns="http://www.w3.org/2000/svg" width="150" height="42"><path data-name="패스 46009" d="M25.514 8.132 17.048 32H9.772L1.306 8.132h6.188l5.916 18.02 5.95-18.02zm13.702 24.106a12.457 12.457 0 0 1-6.171-1.564 11.692 11.692 0 0 1-4.454-4.374 12.211 12.211 0 0 1-1.649-6.3 12.12 12.12 0 0 1 1.649-6.29 11.728 11.728 0 0 1 4.454-4.352 12.457 12.457 0 0 1 6.171-1.564 12.457 12.457 0 0 1 6.171 1.564 11.483 11.483 0 0 1 4.42 4.352A12.318 12.318 0 0 1 51.422 20a12.309 12.309 0 0 1-1.632 6.3 11.6 11.6 0 0 1-4.42 4.369 12.362 12.362 0 0 1-6.154 1.569zm0-5.3a5.857 5.857 0 0 0 4.573-1.9A7.228 7.228 0 0 0 45.506 20a7.214 7.214 0 0 0-1.717-5.049 5.883 5.883 0 0 0-4.573-1.887 5.95 5.95 0 0 0-4.607 1.87A7.2 7.2 0 0 0 32.892 20a7.214 7.214 0 0 0 1.717 5.049 5.923 5.923 0 0 0 4.607 1.885zm14.45-6.9a12.829 12.829 0 0 1 1.53-6.307 10.935 10.935 0 0 1 4.267-4.318 12.388 12.388 0 0 1 6.2-1.547 11.873 11.873 0 0 1 7.281 2.234 10.777 10.777 0 0 1 4.046 6.12H70.6a5.162 5.162 0 0 0-2.023-2.278 5.688 5.688 0 0 0-2.975-.782 5.553 5.553 0 0 0-4.352 1.87 7.236 7.236 0 0 0-1.666 5 7.236 7.236 0 0 0 1.666 5 5.553 5.553 0 0 0 4.35 1.87 5.688 5.688 0 0 0 2.975-.782A5.162 5.162 0 0 0 70.6 23.84h6.39a10.7 10.7 0 0 1-4.046 6.1 11.935 11.935 0 0 1-7.276 2.23 12.388 12.388 0 0 1-6.2-1.547 10.965 10.965 0 0 1-4.267-4.3 12.733 12.733 0 0 1-1.535-6.291zm39.916 7.48h7.618V32H87.768V8.132h5.814zm25.262.272h-8.908L108.508 32h-6.086l8.636-23.868h6.732L126.426 32h-6.154zm-1.5-4.488-2.958-8.738-2.92 8.736zm26.146-3.536a5.551 5.551 0 0 1 3.332 2.057 5.841 5.841 0 0 1 1.258 3.689 5.863 5.863 0 0 1-2.091 4.743A8.821 8.821 0 0 1 140.162 32h-11.118V8.132h10.744a8.809 8.809 0 0 1 5.695 1.666 5.511 5.511 0 0 1 2.057 4.522 5.462 5.462 0 0 1-1.105 3.5 5.715 5.715 0 0 1-2.941 1.94zm-8.636-1.972h3.808a3.371 3.371 0 0 0 2.193-.629 2.26 2.26 0 0 0 .765-1.853 2.311 2.311 0 0 0-.765-1.87 3.309 3.309 0 0 0-2.193-.646h-3.808zm4.284 9.52a3.448 3.448 0 0 0 2.261-.663 2.354 2.354 0 0 0 .8-1.921 2.459 2.459 0 0 0-.833-1.972 3.413 3.413 0 0 0-2.295-.714h-4.216v5.27z"/></svg>