<svg xmlns="http://www.w3.org/2000/svg" width="42" height="42"><g transform="translate(6 4)"><circle data-name="타원 1665" cx="21" cy="21" r="21" transform="translate(-6 -4)" style="fill:#747474"/><path data-name="패스 46020" d="M0 0h24v24H0z" style="fill:none" transform="translate(3 5)"/><path data-name="패스 46021" d="M3 4v1a1 1 0 0 1 1-1h16a1 1 0 0 1 1 1v10a1 1 0 0 1-1 1H4a1 1 0 0 1-1-1z" style="stroke:#fff;stroke-linecap:round;stroke-linejoin:round;stroke-width:1.5px;fill:none" transform="translate(3 5)"/><path data-name="패스 46022" d="M7 20h10" style="stroke:#fff;stroke-linecap:round;stroke-linejoin:round;stroke-width:1.5px;fill:none" transform="translate(3 5)"/><path data-name="패스 46023" d="M9 16v4" style="stroke:#fff;stroke-linecap:round;stroke-linejoin:round;stroke-width:1.5px;fill:none" transform="translate(3 5)"/><path data-name="패스 46024" d="M15 16v4" style="stroke:#fff;stroke-linecap:round;stroke-linejoin:round;stroke-width:1.5px;fill:none" transform="translate(3 5)"/><path data-name="패스 46025" d="M9 12V8" style="stroke:#fff;stroke-linecap:round;stroke-linejoin:round;stroke-width:1.5px;fill:none" transform="translate(3 5)"/><path data-name="패스 46026" d="M12 12v-1" style="stroke:#fff;stroke-linecap:round;stroke-linejoin:round;stroke-width:1.5px;fill:none" transform="translate(3 5)"/><path data-name="패스 46027" d="M15 12v-2" style="stroke:#fff;stroke-linecap:round;stroke-linejoin:round;stroke-width:1.5px;fill:none" transform="translate(3 5)"/><path data-name="패스 46028" d="M12 12v-1" style="stroke:#fff;stroke-linecap:round;stroke-linejoin:round;stroke-width:1.5px;fill:none" transform="translate(3 5)"/></g></svg>