<svg xmlns="http://www.w3.org/2000/svg" width="42" height="42"><circle data-name="타원 1665" cx="21" cy="21" r="21" style="fill:#fff"/><path data-name="패스 45966" d="M0 0h24v24H0z" style="fill:none" transform="translate(9 9)"/><path data-name="패스 45967" d="M10.74 20.194a9.956 9.956 0 0 1-2.947-.9L3 20.316l1.326-3.977A7.564 7.564 0 0 1 6.467 5.76a10.051 10.051 0 0 1 12.079.489 7.834 7.834 0 0 1 2.763 4.957" transform="translate(8.312 8.332)" style="stroke:#333;stroke-linecap:round;stroke-linejoin:round;stroke-width:1.5px;fill:none"/><path data-name="패스 45968" d="m18.079 22.138 3.416-3.349a2.185 2.185 0 0 0 .005-3.132 2.286 2.286 0 0 0-3.191-.006l-.228.224-.227-.224a2.286 2.286 0 0 0-3.19-.006 2.185 2.185 0 0 0-.006 3.132z" transform="translate(8.529 8.549)" style="stroke:#333;stroke-linecap:round;stroke-linejoin:round;stroke-width:1.5px;fill:none"/></svg>