<svg xmlns="http://www.w3.org/2000/svg" width="42" height="42"><circle data-name="타원 1665" cx="21" cy="21" r="21" style="fill:#fff"/><path data-name="패스 45966" d="M0 0h24v24H0z" style="fill:none" transform="translate(9 9)"/><path data-name="패스 46002" d="M8 9h8.238" transform="translate(8.743 8.736)" style="stroke:#333;stroke-linecap:round;stroke-linejoin:round;stroke-width:1.5px;fill:none"/><path data-name="패스 46003" d="M8 13h6.178" transform="translate(8.743 8.855)" style="stroke:#333;stroke-linecap:round;stroke-linejoin:round;stroke-width:1.5px;fill:none"/><path data-name="패스 46004" d="M14.327 18.416H13.3l-5.151 3.09v-3.09h-2.06A3.089 3.089 0 0 1 3 15.327V7.089A3.089 3.089 0 0 1 6.089 4h12.357a3.089 3.089 0 0 1 3.089 3.089v4.634" transform="translate(8.595 8.588)" style="stroke:#333;stroke-linecap:round;stroke-linejoin:round;stroke-width:1.5px;fill:none"/><path data-name="패스 46005" d="M19 22v.01" transform="translate(9.071 9.123)" style="stroke:#333;stroke-linecap:round;stroke-linejoin:round;stroke-width:1.5px;fill:none"/><path data-name="패스 46006" d="M19.045 19.119a2.063 2.063 0 0 0 .941-3.894 2.039 2.039 0 0 0-2.486.5" transform="translate(9.026 8.915)" style="stroke:#333;stroke-linecap:round;stroke-linejoin:round;stroke-width:1.5px;fill:none"/></svg>