<svg xmlns="http://www.w3.org/2000/svg" width="42" height="42"><circle data-name="타원 1665" cx="21" cy="21" r="21" style="fill:#fff"/><path data-name="패스 45966" d="M0 0h24v24H0z" style="fill:none" transform="translate(9 9)"/><path data-name="패스 45998" d="M14 3v4.518a1.13 1.13 0 0 0 1.13 1.13h4.518" transform="translate(9.259 7.834)" style="stroke:#333;stroke-linecap:round;stroke-linejoin:round;stroke-width:1.5px;fill:none"/><path data-name="패스 45999" d="M18.555 23.332H7.259A2.259 2.259 0 0 1 5 21.073V5.259A2.259 2.259 0 0 1 7.259 3h7.907l5.648 5.648v12.425a2.259 2.259 0 0 1-2.259 2.259z" transform="translate(8.093 7.834)" style="stroke:#333;stroke-linecap:round;stroke-linejoin:round;stroke-width:1.5px;fill:none"/><path data-name="패스 46000" d="m10.259 18.961 5.648-5.648a1.6 1.6 0 0 0-2.259-2.259L8 16.7v2.259z" transform="translate(8.482 8.817)" style="stroke:#333;stroke-linecap:round;stroke-linejoin:round;stroke-width:1.5px;fill:none"/></svg>